<svg width="166" height="84" viewBox="0 0 166 84" fill="none" xmlns="http://www.w3.org/2000/svg">
<g clip-path="url(#clip0_9_10)">
<path d="M132.615 76.5312H130.635V67.545H113.365V76.5312H111.385V57.67H111C110.453 57.67 110.01 57.2725 110.01 56.7812V37.0312C110.01 36.54 110.453 36.1425 111 36.1425H111.385V29.625C111.385 29.388 111.489 29.1633 111.674 28.9979L116.885 24.3197V17.2812C116.885 17.1751 116.907 17.0689 116.948 16.9702L121.01 7.24578V2.46875H122.99V7.24578L127.052 16.9702C127.096 17.0689 127.115 17.1751 127.115 17.2812V24.3197L132.326 28.9979C132.51 29.1633 132.615 29.3905 132.615 29.625V36.1425H133C133.547 36.1425 133.99 36.54 133.99 37.0312V56.7812C133.99 57.2725 133.547 57.67 133 57.67H132.615V76.5312ZM128.49 65.7675H130.632V57.67H113.362V65.765H115.507V59.25H117.487V65.7675H121.007V59.25H122.987V65.7675H126.507V59.25H128.49V65.7675ZM111.99 55.8925H132.01V37.92H111.99V55.8925ZM128.49 36.1425H130.632V30.5138H113.362V36.1425H115.507V32.0938H117.487V36.1425H121.007V32.0938H122.987V36.1425H126.507V32.0938H128.49V36.1425ZM114.765 28.7362H129.235L125.715 25.5763H118.285L114.765 28.7362ZM122.99 23.7987H125.135V18.17H118.865V23.7987H121.01V19.75H122.99V23.7987ZM119.305 16.3925H124.698L122 9.93672L119.305 16.3925ZM128.49 76.5312H126.51V69.125H128.493L128.49 76.5312ZM122.99 76.5312H121.01V69.125H122.99V76.5312ZM117.49 76.5312H115.51V69.125H117.49V76.5312ZM122 52.1153C118.043 52.1153 114.822 49.2244 114.822 45.6719C114.822 42.1193 118.043 39.2284 122 39.2284C125.957 39.2284 129.177 42.1169 129.177 45.6719C129.177 49.2269 125.957 52.1153 122 52.1153ZM122 41.0059C119.134 41.0059 116.802 43.0994 116.802 45.6719C116.802 48.2443 119.134 50.3378 122 50.3378C124.865 50.3378 127.197 48.2443 127.197 45.6719C127.197 43.0994 124.865 41.0059 122 41.0059ZM126.125 46.5606H122C121.736 46.5606 121.486 46.4668 121.299 46.2989C121.114 46.1335 121.01 45.9064 121.01 45.6694L121.015 41.9663L122.995 41.9688L122.99 44.7831H126.125V46.5606ZM159.645 30.5138H146.992C144.795 30.5138 143.007 28.9017 143.007 26.9217C143.007 24.5986 145.416 22.6977 147.737 23.0828C148.51 20.7893 150.872 19.1723 153.65 19.1723C155.924 19.1723 157.956 20.2586 159.04 21.9966C161.691 21.6806 164.24 23.8382 164.24 26.3934C164.24 28.6647 162.177 30.5138 159.645 30.5138ZM146.995 24.7961C145.867 24.7961 144.99 25.9392 144.99 26.9217C144.99 27.9216 145.886 28.7362 146.995 28.7362H159.647C161.089 28.7362 162.26 27.6821 162.26 26.3885C162.26 24.7122 160.409 23.3667 158.809 23.8605C158.311 24.0185 157.758 23.7839 157.568 23.342C156.936 21.8879 155.399 20.9473 153.652 20.9473C151.474 20.9473 149.676 22.4088 149.47 24.3468C149.437 24.6455 149.239 24.9122 148.942 25.0504C148.645 25.1887 148.284 25.1812 147.996 25.0356C147.685 24.8776 147.347 24.7961 146.995 24.7961ZM100.866 20.6388H84.6C81.9325 20.6388 79.76 18.681 79.76 16.274C79.76 14.0028 81.7482 11.4698 84.6 11.4698C84.9905 11.4698 85.3782 11.5118 85.755 11.5957C86.635 8.63569 89.6215 6.51997 93.1607 6.51997C96.0482 6.51997 98.6222 7.92962 99.9367 10.1737C103.193 9.66269 106.49 12.361 106.49 15.5877C106.49 18.3724 103.965 20.6388 100.866 20.6388ZM84.6 13.2473C82.9912 13.2473 81.74 14.8742 81.74 16.274C81.74 17.7009 83.0242 18.8612 84.6 18.8612H100.866C102.874 18.8612 104.51 17.3923 104.51 15.5902C104.51 13.8398 102.951 11.8821 100.866 11.8821C100.473 11.8821 100.08 11.9413 99.6947 12.0574C99.1942 12.2154 98.6497 11.9808 98.4545 11.5389C97.5992 9.56887 95.523 8.29747 93.1607 8.29747C90.21 8.29747 87.7762 10.2749 87.5012 12.8992C87.471 13.1979 87.2702 13.4646 86.9732 13.6028C86.6762 13.7435 86.3187 13.7386 86.0245 13.588C85.5845 13.3609 85.1032 13.2473 84.6 13.2473Z" fill="#06B186" stroke="#06B186" stroke-width="0.008"/>
<path d="M166 0H78V79H166V0Z" stroke="#06B186" stroke-width="0.008"/>
</g>
<path d="M4.416 75C3.84 75 3.392 74.8507 3.072 74.552C2.77333 74.232 2.624 73.784 2.624 73.208V54.232C2.624 53.656 2.77333 53.2187 3.072 52.92C3.392 52.6 3.84 52.44 4.416 52.44H12.032C13.5893 52.44 14.912 52.6747 16 53.144C17.1093 53.6133 17.952 54.2853 18.528 55.16C19.1253 56.0347 19.424 57.0907 19.424 58.328C19.424 59.6933 19.0187 60.8453 18.208 61.784C17.3973 62.7227 16.2987 63.352 14.912 63.672V63.192C16.4907 63.4053 17.728 64.0027 18.624 64.984C19.52 65.944 19.968 67.2027 19.968 68.76C19.968 70.7653 19.3067 72.312 17.984 73.4C16.6613 74.4667 14.8053 75 12.416 75H4.416ZM5.824 72.44H12.032C13.632 72.44 14.816 72.1307 15.584 71.512C16.352 70.872 16.736 69.912 16.736 68.632C16.736 67.352 16.352 66.4027 15.584 65.784C14.816 65.1653 13.632 64.856 12.032 64.856H5.824V72.44ZM5.824 62.296H11.52C13.056 62.296 14.2187 61.9867 15.008 61.368C15.7973 60.7493 16.192 59.8427 16.192 58.648C16.192 57.4533 15.7973 56.5467 15.008 55.928C14.2187 55.3093 13.056 55 11.52 55H5.824V62.296ZM25.6845 75.192C25.1725 75.192 24.7778 75.0427 24.5005 74.744C24.2232 74.424 24.0845 73.9867 24.0845 73.432V60.952C24.0845 60.3973 24.2232 59.9707 24.5005 59.672C24.7778 59.3733 25.1725 59.224 25.6845 59.224C26.1965 59.224 26.5912 59.3733 26.8685 59.672C27.1672 59.9707 27.3165 60.3973 27.3165 60.952V73.432C27.3165 73.9867 27.1778 74.424 26.9005 74.744C26.6232 75.0427 26.2178 75.192 25.6845 75.192ZM25.6845 55.896C25.0445 55.896 24.5432 55.736 24.1805 55.416C23.8392 55.096 23.6685 54.648 23.6685 54.072C23.6685 53.4747 23.8392 53.0267 24.1805 52.728C24.5432 52.408 25.0445 52.248 25.6845 52.248C26.3245 52.248 26.8152 52.408 27.1565 52.728C27.5192 53.0267 27.7005 53.4747 27.7005 54.072C27.7005 54.648 27.5192 55.096 27.1565 55.416C26.8152 55.736 26.3245 55.896 25.6845 55.896ZM38.9378 81.048C37.7858 81.048 36.6658 80.9307 35.5778 80.696C34.5111 80.4613 33.5404 80.0773 32.6658 79.544C32.3458 79.3733 32.1324 79.16 32.0258 78.904C31.9191 78.6693 31.8871 78.424 31.9298 78.168C31.9938 77.912 32.1111 77.688 32.2818 77.496C32.4524 77.304 32.6551 77.176 32.8898 77.112C33.1458 77.048 33.4124 77.0907 33.6898 77.24C34.6284 77.752 35.5138 78.0933 36.3458 78.264C37.1991 78.456 37.9884 78.552 38.7138 78.552C40.2071 78.552 41.3271 78.168 42.0738 77.4C42.8204 76.6533 43.1938 75.544 43.1938 74.072V70.808H43.4818C43.1618 71.9813 42.4898 72.9093 41.4658 73.592C40.4418 74.2747 39.2578 74.616 37.9138 74.616C36.5058 74.616 35.2791 74.296 34.2338 73.656C33.1884 72.9947 32.3778 72.088 31.8018 70.936C31.2258 69.7627 30.9378 68.3973 30.9378 66.84C30.9378 65.6667 31.0978 64.6107 31.4178 63.672C31.7591 62.7333 32.2284 61.9227 32.8258 61.24C33.4444 60.5573 34.1804 60.0347 35.0338 59.672C35.9084 59.288 36.8684 59.096 37.9138 59.096C39.2791 59.096 40.4631 59.4373 41.4658 60.12C42.4898 60.8027 43.1511 61.7307 43.4498 62.904L43.1298 63.448V60.792C43.1298 60.2587 43.2684 59.8533 43.5458 59.576C43.8444 59.2987 44.2391 59.16 44.7298 59.16C45.2418 59.16 45.6364 59.2987 45.9138 59.576C46.1911 59.8533 46.3298 60.2587 46.3298 60.792V73.688C46.3298 76.12 45.7004 77.9547 44.4418 79.192C43.1831 80.4293 41.3484 81.048 38.9378 81.048ZM38.6818 72.088C39.6204 72.088 40.4204 71.8747 41.0818 71.448C41.7431 71.0213 42.2551 70.4133 42.6178 69.624C42.9804 68.8347 43.1618 67.9067 43.1618 66.84C43.1618 65.24 42.7564 63.9707 41.9458 63.032C41.1564 62.0933 40.0684 61.624 38.6818 61.624C37.7644 61.624 36.9751 61.8373 36.3138 62.264C35.6524 62.6907 35.1298 63.2987 34.7458 64.088C34.3831 64.856 34.2018 65.7733 34.2018 66.84C34.2018 68.4613 34.6071 69.7413 35.4178 70.68C36.2284 71.6187 37.3164 72.088 38.6818 72.088ZM53.0098 75C52.4338 75 51.9858 74.8507 51.6658 74.552C51.3671 74.232 51.2178 73.784 51.2178 73.208V54.232C51.2178 53.656 51.3671 53.2187 51.6658 52.92C51.9858 52.6 52.4338 52.44 53.0098 52.44H60.6258C62.1831 52.44 63.5058 52.6747 64.5938 53.144C65.7031 53.6133 66.5458 54.2853 67.1218 55.16C67.7191 56.0347 68.0178 57.0907 68.0178 58.328C68.0178 59.6933 67.6124 60.8453 66.8018 61.784C65.9911 62.7227 64.8924 63.352 63.5058 63.672V63.192C65.0844 63.4053 66.3218 64.0027 67.2178 64.984C68.1138 65.944 68.5618 67.2027 68.5618 68.76C68.5618 70.7653 67.9004 72.312 66.5778 73.4C65.2551 74.4667 63.3991 75 61.0098 75H53.0098ZM54.4178 72.44H60.6258C62.2258 72.44 63.4098 72.1307 64.1778 71.512C64.9458 70.872 65.3298 69.912 65.3298 68.632C65.3298 67.352 64.9458 66.4027 64.1778 65.784C63.4098 65.1653 62.2258 64.856 60.6258 64.856H54.4178V72.44ZM54.4178 62.296H60.1138C61.6498 62.296 62.8124 61.9867 63.6018 61.368C64.3911 60.7493 64.7858 59.8427 64.7858 58.648C64.7858 57.4533 64.3911 56.5467 63.6018 55.928C62.8124 55.3093 61.6498 55 60.1138 55H54.4178V62.296ZM80.0063 75.288C78.2996 75.288 76.8276 74.968 75.5903 74.328C74.3743 73.6667 73.4249 72.7387 72.7423 71.544C72.0809 70.328 71.7503 68.888 71.7503 67.224C71.7503 65.6027 72.0809 64.184 72.7423 62.968C73.4036 61.752 74.3103 60.8027 75.4623 60.12C76.6143 59.4373 77.9263 59.096 79.3983 59.096C80.4863 59.096 81.4569 59.2773 82.3103 59.64C83.1636 59.9813 83.8889 60.4933 84.4863 61.176C85.1049 61.8373 85.5636 62.648 85.8623 63.608C86.1823 64.568 86.3423 65.6453 86.3423 66.84C86.3423 67.2027 86.2356 67.48 86.0223 67.672C85.8089 67.8427 85.4889 67.928 85.0623 67.928H74.3103V65.944H84.1663L83.6223 66.392C83.6223 65.3253 83.4623 64.4187 83.1423 63.672C82.8436 62.9253 82.3849 62.36 81.7663 61.976C81.1689 61.5707 80.4223 61.368 79.5263 61.368C78.5236 61.368 77.6703 61.6027 76.9663 62.072C76.2836 62.5413 75.7609 63.192 75.3983 64.024C75.0356 64.856 74.8543 65.8267 74.8543 66.936V67.128C74.8543 69.0053 75.2916 70.424 76.1663 71.384C77.0623 72.3227 78.3529 72.792 80.0383 72.792C80.6783 72.792 81.3503 72.7067 82.0543 72.536C82.7796 72.3653 83.4623 72.0773 84.1023 71.672C84.4649 71.4587 84.7849 71.3627 85.0623 71.384C85.3609 71.4053 85.5956 71.5013 85.7663 71.672C85.9583 71.8427 86.0756 72.056 86.1183 72.312C86.1609 72.568 86.1183 72.8347 85.9903 73.112C85.8623 73.368 85.6383 73.6027 85.3183 73.816C84.5929 74.3067 83.7503 74.68 82.7903 74.936C81.8303 75.1707 80.9023 75.288 80.0063 75.288ZM91.4658 75.224C90.9538 75.224 90.5591 75.0853 90.2818 74.808C90.0044 74.5093 89.8658 74.104 89.8658 73.592V60.792C89.8658 60.2587 90.0044 59.8533 90.2818 59.576C90.5591 59.2987 90.9431 59.16 91.4338 59.16C91.9458 59.16 92.3298 59.2987 92.5858 59.576C92.8631 59.8533 93.0018 60.2587 93.0018 60.792V63.288L92.6498 62.712C93.1191 61.5173 93.8551 60.6213 94.8578 60.024C95.8604 59.4053 97.0124 59.096 98.3138 59.096C99.5511 59.096 100.575 59.3307 101.386 59.8C102.218 60.248 102.836 60.9413 103.242 61.88C103.647 62.7973 103.85 63.96 103.85 65.368V73.592C103.85 74.104 103.711 74.5093 103.434 74.808C103.156 75.0853 102.762 75.224 102.25 75.224C101.716 75.224 101.311 75.0853 101.034 74.808C100.756 74.5093 100.618 74.104 100.618 73.592V65.56C100.618 64.216 100.351 63.2347 99.8178 62.616C99.3058 61.9973 98.4951 61.688 97.3858 61.688C96.0844 61.688 95.0391 62.0933 94.2498 62.904C93.4818 63.7147 93.0978 64.8027 93.0978 66.168V73.592C93.0978 74.68 92.5538 75.224 91.4658 75.224Z" fill="#FF6565"/>
<defs>
<clipPath id="clip0_9_10">
<rect width="88" height="79" fill="white" transform="translate(78)"/>
</clipPath>
</defs>
</svg>
